<svg version="1.1" xmlns="http://www.w3.org/2000/svg" viewBox="0 0 250 250"><desc>Created with Snap</desc><defs></defs><g transform="matrix(0.0281,0,0,0.0281,90.7278,120.3299)"><rect x="-3232.7110097387076" y="-1034.2400390625" width="8907.71923727777" height="2401.2800537109374" fill-opacity="0" style=""></rect><g transform="matrix(26.9409,0,0,26.9409,-2925.511,-1106.4214)"><path fill="white" d="M0,80.408l40.816-66.326l30.803,45.911l-9.555,9.378l1.201,1.854l18.367-18.367L100,80.408H0z   M40.985,20.207L27.208,42.271l5.934-3.629l2.108,10.983l4.265-13.435l7.404,13.189l0.588-11.081l11.031,9.023L40.985,20.207z" style=""></path><defs></defs></g><g><g transform="matrix(1.024,0,0,-1.024,0,0)"><path d="M212 0L74 0L74 710L551 710L551 589L212 589L212 406L494 406L494 294L212 294L212 0ZM877 -10Q813 -10 762 12Q711 34 675 71Q640 109 621 158Q602 207 602 261Q602 316 621 365Q640 414 675 451Q711 489 762 511Q813 533 877 533Q941 533 991 511Q1042 489 1077 451Q1113 414 1132 365Q1151 316 1151 261Q1151 207 1132 158Q1113 109 1078 71Q1043 34 992 12Q941 -10 877 -10ZM740 261Q740 226 750 197Q761 169 779 148Q798 127 823 115Q848 104 877 104Q906 104 931 115Q956 127 974 148Q993 169 1003 198Q1014 227 1014 262Q1014 296 1003 325Q993 354 974 375Q956 396 931 407Q906 419 877 419Q848 419 823 407Q798 395 779 374Q761 353 750 324Q740 295 740 261ZM1553 530L1553 408Q1492 407 1444 384Q1396 362 1375 317L1375 0L1241 0L1241 524L1364 524L1364 412Q1378 439 1397 460Q1416 482 1438 498Q1460 514 1482 522Q1505 531 1526 531Q1537 531 1542 531Q1548 531 1553 530ZM1871 -10Q1808 -10 1757 11Q1706 33 1670 70Q1634 107 1614 156Q1595 205 1595 259Q1595 315 1614 364Q1633 414 1669 451Q1705 489 1756 511Q1808 533 1872 533Q1936 533 1986 511Q2037 489 2072 452Q2108 415 2126 366Q2145 317 2145 264Q2145 251 2144 239Q2144 227 2142 219L1737 219Q1740 188 1752 164Q1764 140 1783 123Q1802 106 1826 97Q1850 88 1876 88Q1916 88 1951 107Q1987 127 2000 159L2115 127Q2086 67 2022 28Q1959 -10 1871 -10ZM1735 306L2007 306Q2002 365 1963 400Q1925 436 1870 436Q1843 436 1819 426Q1796 417 1778 400Q1760 383 1748 359Q1737 335 1735 306ZM2194 262Q2194 317 2213 366Q2232 415 2268 452Q2304 489 2355 511Q2406 533 2470 533Q2556 533 2616 496Q2677 459 2707 399L2576 359Q2559 388 2531 403Q2503 419 2469 419Q2440 419 2415 407Q2390 396 2371 375Q2353 355 2342 326Q2332 297 2332 262Q2332 227 2343 198Q2354 169 2372 148Q2391 127 2416 115Q2441 104 2469 104Q2505 104 2535 122Q2566 140 2578 166L2709 126Q2682 66 2620 28Q2558 -10 2471 -10Q2407 -10 2356 12Q2305 34 2269 71Q2233 109 2213 158Q2194 208 2194 262ZM2934 -10Q2896 -10 2863 2Q2830 15 2806 37Q2782 60 2768 90Q2755 120 2755 156Q2755 193 2771 224Q2788 256 2817 278Q2847 300 2888 312Q2929 325 2978 325Q3013 325 3046 319Q3080 313 3106 302L3106 332Q3106 384 3076 412Q3047 440 2989 440Q2947 440 2907 425Q2867 410 2825 381L2784 466Q2885 533 3002 533Q3115 533 3177 477Q3240 422 3240 317L3240 154Q3240 133 3247 124Q3255 115 3272 114L3272 0Q3238 -7 3213 -7Q3175 -7 3154 10Q3134 27 3129 55L3126 84Q3091 38 3041 14Q2991 -10 2934 -10ZM2972 88Q3006 88 3036 100Q3067 112 3084 132Q3106 149 3106 170L3106 230Q3082 239 3054 244Q3026 250 3000 250Q2948 250 2915 226Q2882 203 2882 167Q2882 133 2908 110Q2934 88 2972 88ZM3563 -10Q3497 -10 3434 11Q3371 32 3326 71L3376 155Q3424 121 3469 103Q3515 86 3560 86Q3600 86 3623 101Q3646 116 3646 144Q3646 172 3619 185Q3592 198 3531 215Q3480 229 3444 242Q3408 255 3386 271Q3364 288 3354 309Q3344 331 3344 361Q3344 401 3359 433Q3375 465 3403 487Q3431 510 3468 522Q3506 534 3550 534Q3609 534 3660 517Q3712 500 3755 462L3701 381Q3661 411 3623 425Q3586 439 3549 439Q3515 439 3492 425Q3469 411 3469 380Q3469 366 3474 357Q3480 348 3492 341Q3504 334 3523 327Q3543 321 3572 314Q3626 300 3664 286Q3703 272 3727 254Q3752 236 3763 212Q3775 189 3775 156Q3775 79 3718 34Q3661 -10 3563 -10ZM4149 133L4176 27Q4149 15 4110 3Q4071 -9 4028 -9Q4000 -9 3975 -2Q3951 5 3932 20Q3914 36 3903 60Q3892 85 3892 120L3892 421L3823 421L3823 524L3892 524L3892 694L4026 694L4026 524L4136 524L4136 421L4026 421L4026 165Q4026 137 4040 125Q4055 114 4076 114Q4097 114 4117 121Q4137 128 4149 133Z" fill="#ffffff" style=""></path></g></g><g transform="matrix(1,0,0,1,71.68,1049.6)"><g transform="matrix(1.024,0,0,-1.024,0,0)"><path d="M4 710L154 710L329 368L507 710L656 710L398 248L398 0L261 0L261 250L4 710ZM963 -10Q899 -10 848 12Q797 34 761 71Q726 109 707 158Q688 207 688 261Q688 316 707 365Q726 414 761 451Q797 489 848 511Q899 533 963 533Q1027 533 1077 511Q1128 489 1163 451Q1199 414 1218 365Q1237 316 1237 261Q1237 207 1218 158Q1199 109 1164 71Q1129 34 1078 12Q1027 -10 963 -10ZM826 261Q826 226 836 197Q847 169 865 148Q884 127 909 115Q934 104 963 104Q992 104 1017 115Q1042 127 1060 148Q1079 169 1089 198Q1100 227 1100 262Q1100 296 1089 325Q1079 354 1060 375Q1042 396 1017 407Q992 419 963 419Q934 419 909 407Q884 395 865 374Q847 353 836 324Q826 295 826 261ZM1487 -10Q1406 -10 1364 42Q1322 94 1322 196L1322 524L1456 524L1456 225Q1456 104 1543 104Q1582 104 1618 127Q1655 151 1678 199L1678 524L1812 524L1812 154Q1812 133 1819 124Q1827 115 1844 114L1844 0Q1824 -4 1810 -5Q1797 -6 1786 -6Q1750 -6 1727 10Q1705 27 1701 56L1698 98Q1663 44 1608 17Q1553 -10 1487 -10ZM2257 530L2257 408Q2196 407 2148 384Q2100 362 2079 317L2079 0L1945 0L1945 524L2068 524L2068 412Q2082 439 2101 460Q2120 482 2142 498Q2164 514 2186 522Q2209 531 2230 531Q2241 531 2246 531Q2252 531 2257 530ZM3069 636L3008 524Q3001 531 2982 543Q2964 555 2937 566Q2911 578 2880 586Q2849 594 2817 594Q2760 594 2732 573Q2704 552 2704 514Q2704 492 2714 477Q2725 463 2745 452Q2765 441 2795 432Q2826 423 2866 413Q2918 399 2960 383Q3003 367 3032 343Q3062 319 3078 285Q3094 252 3094 203Q3094 146 3072 105Q3051 65 3014 40Q2978 15 2930 3Q2883 -8 2831 -8Q2751 -8 2673 16Q2595 40 2533 84L2594 203Q2603 194 2626 179Q2650 165 2682 150Q2714 136 2753 126Q2792 116 2833 116Q2947 116 2947 189Q2947 212 2934 228Q2921 244 2897 256Q2873 268 2839 278Q2805 288 2763 300Q2712 314 2674 330Q2637 347 2612 369Q2587 392 2574 421Q2562 451 2562 492Q2562 546 2582 588Q2602 630 2637 658Q2673 686 2720 700Q2767 715 2821 715Q2896 715 2959 691Q3022 668 3069 636ZM3672 327L3672 0L3538 0L3538 294Q3538 357 3516 386Q3494 415 3455 415Q3435 415 3414 407Q3393 399 3374 384Q3356 370 3341 350Q3326 330 3319 306L3319 0L3185 0L3185 524L3306 524L3306 427Q3335 477 3390 505Q3445 533 3514 533Q3563 533 3594 515Q3625 497 3642 468Q3659 439 3665 402Q3672 365 3672 327ZM4031 -10Q3967 -10 3916 12Q3865 34 3829 71Q3794 109 3775 158Q3756 207 3756 261Q3756 316 3775 365Q3794 414 3829 451Q3865 489 3916 511Q3967 533 4031 533Q4095 533 4145 511Q4196 489 4231 451Q4267 414 4286 365Q4305 316 4305 261Q4305 207 4286 158Q4267 109 4232 71Q4197 34 4146 12Q4095 -10 4031 -10ZM3894 261Q3894 226 3904 197Q3915 169 3933 148Q3952 127 3977 115Q4002 104 4031 104Q4060 104 4085 115Q4110 127 4128 148Q4147 169 4157 198Q4168 227 4168 262Q4168 296 4157 325Q4147 354 4128 375Q4110 396 4085 407Q4060 419 4031 419Q4002 419 3977 407Q3952 395 3933 374Q3915 353 3904 324Q3894 295 3894 261ZM4889 126L5045 524L5172 524L4953 0L4843 0L4753 230L4664 0L4554 0L4336 524L4462 524L4618 126L4682 296L4590 523L4698 523L4753 362L4809 523L4917 523L4826 296L4889 126Z" fill="#ffffff" style=""></path></g></g></g></svg>